<svg width="21" height="21" viewBox="0 0 21 21" fill="none" xmlns="http://www.w3.org/2000/svg">
<path d="M3.11703 17.2784L3.08545 10.7913H4.57276L4.60434 17.2784H3.11703Z" fill="#F15F50"/>
<path d="M2.41096 9.74789L2.4187 11.2983L5.23488 11.2843L5.22714 9.73383L2.41096 9.74789Z" fill="white"/>
<path d="M2.10437 11.6138V9.43026L5.55419 9.39868V11.5823L2.10437 11.6138ZM2.73603 10.0634V10.9812H4.92253V10.0634H2.73603Z" fill="#193651"/>
<path d="M9.98349 17.2462L9.9519 10.759H11.4392L11.4708 17.2462H9.98349Z" fill="#F15F50"/>
<path d="M9.3 9.70907L9.30774 11.2595L12.1239 11.2455L12.1162 9.69501L9.3 9.70907Z" fill="white"/>
<path d="M9.00256 11.5821V9.39853L12.4524 9.36694V11.5505L9.00256 11.5821ZM9.63422 10.0316V10.9495H11.8207V10.0316H9.63422Z" fill="#193651"/>
<path d="M16.9134 17.2146L16.8502 10.7275H18.3691L18.4007 17.2146H16.9134Z" fill="#F15F50"/>
<path d="M16.1842 9.66292L16.1919 11.2134L19.0081 11.1993L19.0003 9.64887L16.1842 9.66292Z" fill="white"/>
<path d="M15.9008 11.5506V9.36703L19.3506 9.33545V11.519L15.9008 11.5506ZM16.5324 10.0001V10.918H18.7189V10.0001H16.5324Z" fill="#193651"/>
<path d="M2.46589 16.7938L2.47363 18.3442L5.28981 18.3302L5.28207 16.7797L2.46589 16.7938Z" fill="white"/>
<path d="M2.1676 18.6702V16.4867L5.61742 16.4551V18.6387L2.1676 18.6702ZM2.79926 17.1198V18.0376H4.98576V17.1198H2.79926Z" fill="#193651"/>
<path d="M9.3083 16.7725L9.31604 18.323L12.1322 18.3089L12.1245 16.7585L9.3083 16.7725Z" fill="white"/>
<path d="M9.00256 18.6702V16.4867L12.4198 16.4551V18.6387L9.00256 18.6702ZM9.63422 17.0882V18.006H11.8207V17.0867L9.63422 17.0882Z" fill="#193651"/>
<path d="M16.238 16.7403L16.2457 18.2908L19.0619 18.2767L19.0542 16.7263L16.238 16.7403Z" fill="white"/>
<path d="M15.9323 18.6073V16.4237L19.3821 16.3921V18.5757L15.9323 18.6073ZM16.5639 17.0568V17.9746H18.7504V17.0568H16.5639Z" fill="#193651"/>
<path d="M1.00118 19.9219L20.557 19.8223L20.5491 18.2718L0.993276 18.3715L1.00118 19.9219Z" fill="#D3D7DA"/>
<path d="M0.680176 20.2523V18.0687L20.8689 17.9424V20.126L0.680176 20.2523ZM1.31183 18.7018V19.6197L20.2348 19.5225V18.6047L1.31183 18.7018Z" fill="#193651"/>
<path d="M20.4889 9.65166L0.93335 9.74641V8.10118L10.6793 2.81665L20.4889 8.00595V9.65166Z" fill="white"/>
<path d="M0.617065 10.0632V7.91071L10.6798 2.46875L20.8058 7.81645V9.96797L0.617065 10.0632ZM1.24872 8.29117V9.43009L20.1717 9.33291V8.19642L10.6798 3.16503L1.24872 8.29117Z" fill="#193651"/>
<path d="M14.6982 11.4868H14.0656V12.1194H14.6982V11.4868Z" fill="#193651"/>
<path d="M14.6982 13.6389H14.0656V14.2715H14.6982V13.6389Z" fill="#193651"/>
<path d="M14.7079 15.5488H13.7361V16.5206H14.7079V15.5488Z" fill="#193651"/>
<path d="M7.57843 11.4868H6.9458V12.1194H7.57843V11.4868Z" fill="#193651"/>
<path d="M7.57843 13.6389H6.9458V14.2715H7.57843V13.6389Z" fill="#193651"/>
<path d="M7.41948 15.5488H6.93359V16.5206H7.41948V15.5488Z" fill="#193651"/>
<path d="M10.7114 0.31665C9.65417 0.317551 8.64053 0.73792 7.89298 1.48547C7.14543 2.23302 6.72506 3.24666 6.72416 4.30386C6.72197 4.82808 6.82362 5.34754 7.02322 5.83228C7.22282 6.31702 7.51643 6.75743 7.88711 7.12812C8.2578 7.4988 8.69821 7.79241 9.18295 7.99201C9.66769 8.19162 10.1871 8.29326 10.7114 8.29107C11.7686 8.29017 12.7822 7.8698 13.5298 7.12225C14.2773 6.3747 14.6977 5.36106 14.6986 4.30386C14.6977 3.24666 14.2773 2.23302 13.5298 1.48547C12.7822 0.73792 11.7686 0.317551 10.7114 0.31665Z" fill="#FFBF5D"/>
<path d="M10.7115 8.60754C9.86033 8.60754 9.02829 8.35514 8.32057 7.88226C7.61286 7.40939 7.06127 6.73727 6.73555 5.9509C6.40982 5.16454 6.3246 4.29924 6.49065 3.46444C6.6567 2.62964 7.06657 1.86282 7.66843 1.26096C8.27029 0.659105 9.0371 0.249234 9.87191 0.0831812C10.7067 -0.0828712 11.572 0.00235292 12.3584 0.328076C13.1447 0.6538 13.8169 1.20539 14.2897 1.9131C14.7626 2.62082 15.015 3.45286 15.015 4.30401C15.0138 5.44502 14.5601 6.53897 13.7533 7.34579C12.9464 8.1526 11.8525 8.60638 10.7115 8.60754ZM10.7115 0.633604C9.98555 0.633604 9.27591 0.84887 8.67231 1.25218C8.06872 1.65549 7.59827 2.22873 7.32047 2.89941C7.04266 3.57009 6.96997 4.30809 7.1116 5.02008C7.25322 5.73207 7.60279 6.38607 8.11611 6.89939C8.62943 7.4127 9.28343 7.76227 9.99542 7.9039C10.7074 8.04552 11.4454 7.97284 12.1161 7.69503C12.7868 7.41723 13.36 6.94678 13.7633 6.34318C14.1666 5.73959 14.3819 5.02995 14.3819 4.30401C14.3815 3.33055 13.9947 2.39704 13.3065 1.70855C12.6183 1.02007 11.685 0.632919 10.7115 0.632147V0.633604Z" fill="#193651"/>
<path d="M10.7114 6.61389C10.3678 6.61236 10.0387 6.47518 9.79573 6.23222C9.55277 5.98926 9.41559 5.66017 9.41406 5.31657H10.0788C10.0788 5.4415 10.1158 5.56362 10.1852 5.6675C10.2546 5.77137 10.3533 5.85233 10.4687 5.90014C10.5841 5.94795 10.7111 5.96046 10.8336 5.93609C10.9562 5.91171 11.0687 5.85155 11.1571 5.76322C11.2454 5.67488 11.3056 5.56233 11.3299 5.4398C11.3543 5.31727 11.3418 5.19026 11.294 5.07484C11.2462 4.95942 11.1652 4.86077 11.0613 4.79136C10.9575 4.72196 10.8353 4.68491 10.7104 4.68491C10.3663 4.68491 10.0364 4.54823 9.79307 4.30493C9.54977 4.06164 9.41309 3.73166 9.41309 3.38758C9.41309 3.04351 9.54977 2.71353 9.79307 2.47024C10.0364 2.22694 10.3663 2.09026 10.7104 2.09026C10.8787 2.0875 11.0458 2.11804 11.2023 2.18013C11.3587 2.24221 11.5013 2.33462 11.6219 2.45204C11.7425 2.56945 11.8386 2.70955 11.9048 2.86427C11.9711 3.01899 12.006 3.18528 12.0077 3.35357H11.343C11.343 3.22864 11.306 3.10652 11.2366 3.00264C11.1672 2.89877 11.0685 2.81781 10.9531 2.77C10.8377 2.72219 10.7107 2.70968 10.5882 2.73405C10.4656 2.75843 10.3531 2.81858 10.2647 2.90692C10.1764 2.99526 10.1162 3.10781 10.0919 3.23034C10.0675 3.35287 10.08 3.47988 10.1278 3.5953C10.1756 3.71072 10.2566 3.80937 10.3605 3.87878C10.4643 3.94818 10.5865 3.98523 10.7114 3.98523C11.0596 3.98523 11.3936 4.12358 11.6399 4.36983C11.8862 4.61609 12.0245 4.95008 12.0245 5.29835C12.0245 5.64661 11.8862 5.9806 11.6399 6.22686C11.3936 6.47312 11.0596 6.61146 10.7114 6.61146V6.61389Z" fill="#193651"/>
<path d="M11.0282 1.67773H10.3635V2.18403H11.0282V1.67773Z" fill="#193651"/>
<path d="M11.0282 6.39258H10.3635V6.89888H11.0282V6.39258Z" fill="#193651"/>
<path d="M8.78107 3.95605H8.14844V4.62075H8.78107V3.95605Z" fill="#193651"/>
<path d="M13.274 3.95605H12.6414V4.62075H13.274V3.95605Z" fill="#193651"/>
</svg>
