<svg width="41" height="39" viewBox="0 0 41 39" fill="none" xmlns="http://www.w3.org/2000/svg">
<path fill-rule="evenodd" clip-rule="evenodd" d="M31.6787 20.978C26.8578 20.9774 22.9493 24.8851 22.9487 29.7059C22.9482 34.5269 26.8558 38.4354 31.6767 38.436C36.4976 38.4365 40.4062 34.5289 40.4067 29.708C40.4067 24.8898 36.5009 20.9813 31.6807 20.978H31.6787ZM32.2391 36.1599V35.4059C32.2391 35.0958 31.9877 34.8444 31.6776 34.8444C31.3675 34.8444 31.1161 35.0958 31.1161 35.4059V36.1599C27.9839 35.884 25.501 33.401 25.2251 30.2689H25.9811C26.2912 30.2689 26.5426 30.0175 26.5426 29.7074C26.5426 29.3973 26.2912 29.1459 25.9811 29.1459H25.2251C25.501 26.0138 27.984 23.5308 31.1161 23.2549V24.0099C31.1161 24.3201 31.3675 24.5714 31.6776 24.5714C31.9877 24.5714 32.2391 24.3201 32.2391 24.0099V23.2588C35.3716 23.5339 37.855 26.0173 38.1301 29.1499H37.3741C37.064 29.1499 36.8126 29.4012 36.8126 29.7113C36.8126 30.0215 37.064 30.2728 37.3741 30.2728H38.1301C37.8528 33.4031 35.3705 35.8837 32.2401 36.1589L32.2391 36.1599Z" fill="#345FB4"/>
<path fill-rule="evenodd" clip-rule="evenodd" d="M34.9315 28.8639H32.9065C32.6287 28.4595 32.1701 28.2173 31.6795 28.2158H31.6545L29.8095 25.6158C29.5391 25.2367 29.0126 25.1486 28.6335 25.4188C28.2543 25.6892 28.1662 26.2157 28.4365 26.5948L30.2825 29.1948C30.2224 29.3583 30.191 29.5308 30.1896 29.7048C30.1896 30.3573 30.6144 30.9337 31.2377 31.127C31.8609 31.3202 32.5374 31.0851 32.9065 30.547L34.9315 30.5469C35.3974 30.5469 35.775 30.1692 35.775 29.7034C35.775 29.2375 35.3974 28.8599 34.9315 28.8599L34.9315 28.8639Z" fill="#345FB4"/>
<path fill-rule="evenodd" clip-rule="evenodd" d="M8.40018 12.3319C9.13315 12.3322 9.83619 12.0413 10.3546 11.5231C10.8729 11.0049 11.1642 10.3019 11.1642 9.56897V3.56897C11.1642 2.04297 9.92715 0.805908 8.40118 0.805908C6.87522 0.805908 5.63818 2.04297 5.63818 3.56897V9.56897C5.63792 10.3016 5.92882 11.0044 6.44683 11.5226C6.96484 12.0408 7.66753 12.3319 8.40022 12.3319H8.40018Z" fill="#345FB4"/>
<path fill-rule="evenodd" clip-rule="evenodd" d="M25.326 12.3319C26.059 12.3322 26.762 12.0413 27.2804 11.5231C27.7988 11.0049 28.09 10.3019 28.09 9.56897L28.09 3.56897C28.09 2.04297 26.8529 0.805908 25.327 0.805908C23.801 0.805908 22.564 2.04297 22.564 3.56897V9.56897C22.5635 10.301 22.8542 11.0038 23.3721 11.5221C23.89 12.0404 24.5926 12.3318 25.3253 12.3319H25.326Z" fill="#345FB4"/>
<path fill-rule="evenodd" clip-rule="evenodd" d="M12.1452 20.0059C12.1455 19.6268 11.9949 19.2633 11.7269 18.9955C11.4588 18.7275 11.0952 18.5773 10.7162 18.5779H8.06819C7.27897 18.5773 6.63873 19.2167 6.63818 20.0059L6.63819 22.6528C6.63819 23.4429 7.27826 24.0834 8.06819 24.084L10.7162 24.0839C11.0955 24.0839 11.4593 23.9331 11.7274 23.6647C11.9954 23.3962 12.1457 23.0322 12.1452 22.6528V20.0059Z" fill="#345FB4"/>
<path fill-rule="evenodd" clip-rule="evenodd" d="M19.6178 20.0071C19.6178 19.219 18.9789 18.5801 18.1908 18.5801H15.5378C14.7497 18.5801 14.1108 19.219 14.1108 20.0071V22.6541C14.1104 23.4429 14.7493 24.0826 15.538 24.0831H18.1868C18.9753 24.0819 19.6138 23.4425 19.6138 22.6541L19.6178 20.0071Z" fill="#345FB4"/>
<path fill-rule="evenodd" clip-rule="evenodd" d="M23.0125 18.5779C22.6335 18.5774 22.2697 18.7275 22.0015 18.9954C21.7332 19.2633 21.5825 19.6268 21.5825 20.0059V22.6528C21.5883 23.3523 22.1058 23.9417 22.7985 24.0378C23.8511 22.3995 25.3342 21.0824 27.0855 20.231V20.0049C27.0858 19.6261 26.9354 19.2626 26.6674 18.9946C26.3993 18.7267 26.0357 18.5764 25.6567 18.5769L23.0125 18.5779Z" fill="#345FB4"/>
<path fill-rule="evenodd" clip-rule="evenodd" d="M8.06818 25.752C7.27936 25.7513 6.63929 26.3901 6.63818 27.179V29.8269C6.63924 30.6157 7.27927 31.2545 8.0681 31.2539H10.7172C11.0957 31.2543 11.4588 31.104 11.7265 30.8363C11.9942 30.5686 12.1444 30.2056 12.1442 29.8269V27.179C12.1444 26.8004 11.9942 26.4373 11.7265 26.1696C11.4588 25.902 11.0957 25.7517 10.7172 25.752H8.06818Z" fill="#345FB4"/>
<path fill-rule="evenodd" clip-rule="evenodd" d="M18.1877 25.7529H15.5447C14.7564 25.7534 14.1177 26.3926 14.1177 27.1809V29.8269C14.1174 30.2056 14.2677 30.5686 14.5354 30.8363C14.803 31.104 15.1661 31.2542 15.5447 31.2539H18.1917C18.9798 31.2539 19.6187 30.615 19.6187 29.8269V27.1819C19.619 26.8025 19.4682 26.4385 19.1997 26.1704C18.9312 25.9023 18.5671 25.7521 18.1877 25.7529Z" fill="#345FB4"/>
<path fill-rule="evenodd" clip-rule="evenodd" d="M22.0475 33.9889H8.61451C6.30038 33.9856 4.42492 32.1111 4.42051 29.7969L4.42051 15.7629H29.3085V19.4349C30.7588 19.0908 32.2665 19.0656 33.7275 19.3608L33.7275 6.16284H29.7465V9.56287C29.7465 12.0045 27.7672 13.9839 25.3255 13.9839C22.8839 13.9839 20.9045 12.0045 20.9045 9.56287V6.16284H12.8225V9.56287C12.8225 12.0045 10.8432 13.9839 8.40151 13.9839C5.95986 13.9839 3.98051 12.0045 3.98051 9.56287V6.16284H-0.000488281V29.7928C-0.000488281 34.5508 3.85658 38.4078 8.61451 38.4078H25.1145C25.3145 38.4078 25.5035 38.3918 25.6965 38.3789C24.1019 37.2765 22.8398 35.7582 22.0475 33.9889H22.0475Z" fill="#345FB4"/>
</svg>
