<svg width="38" height="45" viewBox="0 0 38 45" fill="none" xmlns="http://www.w3.org/2000/svg">
<path fill-rule="evenodd" clip-rule="evenodd" d="M18.5673 12.8602C20.0408 12.8602 21.5155 12.8511 22.989 12.8692C23.2696 12.8744 23.5458 12.9403 23.7986 13.0623C26.5604 14.4909 28.9797 16.5014 30.8895 18.9552C33.5893 22.1485 35.5276 25.9138 36.5578 29.9665C37.2543 32.3088 37.2236 34.8074 36.4697 37.132C35.5284 39.5304 33.6838 41.4638 31.3322 42.5168C28.8672 43.7346 26.1928 44.4719 23.452 44.6892C21.1199 44.9091 18.7781 45.0116 16.4356 44.9963C13.0643 45.0536 9.71477 44.4463 6.57831 43.2089C4.00648 42.2861 1.92285 40.3533 0.809575 37.858C0.00242369 35.9089 -0.207841 33.764 0.205452 31.6952C1.47779 24.5181 5.57729 18.152 11.5849 14.0243C12.6759 13.1486 14.0612 12.7247 15.4555 12.8398C16.4918 12.8999 17.5303 12.9067 18.5672 12.8602H18.5673Z" fill="#345FB4"/>
<path fill-rule="evenodd" clip-rule="evenodd" d="M23.3591 10.428H13.7458C13.5323 7.9925 11.9911 6.4343 10.1766 5.10305C9.21815 4.43284 8.22003 3.82124 7.1878 3.27159C6.35225 2.80189 6.22806 2.2554 6.91454 1.57791C7.66987 0.907494 8.59962 0.464722 9.59623 0.300855C11.9685 -0.161248 14.4147 -0.0805635 16.7514 0.536843C18.4305 0.907201 20.1219 1.22673 21.8168 1.51129C23.3195 1.66594 24.8379 1.50478 26.2746 1.03818C27.3089 0.778482 28.3194 0.423923 29.3357 0.0942262C29.916 -0.0932097 30.292 -0.00739131 30.5111 0.409261C30.7302 0.825914 30.6071 1.2053 30.1181 1.55872C28.1274 2.92727 26.3676 4.60435 24.9049 6.52689C24.0202 7.64869 23.4829 9.00473 23.3591 10.428Z" fill="#345FB4"/>
<path d="M15.1732 35L12.5649 30.3932H11.447V35H9.07588V23.178H13.5134C14.428 23.178 15.2071 23.3417 15.8507 23.6692C16.4943 23.9853 16.9741 24.4201 17.2903 24.9733C17.6177 25.5153 17.7815 26.125 17.7815 26.8025C17.7815 27.5816 17.5556 28.2873 17.104 28.9196C16.6523 29.5407 15.9805 29.9697 15.0885 30.2068L17.917 35H15.1732ZM11.447 28.6148H13.4287C14.0723 28.6148 14.5522 28.4623 14.8683 28.1575C15.1845 27.8413 15.3425 27.4066 15.3425 26.8533C15.3425 26.3113 15.1845 25.8936 14.8683 25.6C14.5522 25.2951 14.0723 25.1427 13.4287 25.1427H11.447V28.6148ZM23.5167 35.1524C22.7489 35.1524 22.0602 35.0169 21.4504 34.7459C20.8407 34.4637 20.3552 34.0854 19.9939 33.6112C19.6438 33.1369 19.4519 32.6119 19.418 32.036H21.8061C21.8513 32.3974 22.0263 32.6966 22.3312 32.9337C22.6473 33.1708 23.0369 33.2894 23.4998 33.2894C23.9515 33.2894 24.3015 33.199 24.5499 33.0184C24.8096 32.8377 24.9394 32.6062 24.9394 32.324C24.9394 32.0191 24.7814 31.7933 24.4652 31.6465C24.1603 31.4884 23.6692 31.319 22.9917 31.1384C22.2916 30.969 21.7158 30.794 21.2641 30.6133C20.8238 30.4327 20.4399 30.156 20.1124 29.7834C19.7963 29.4108 19.6382 28.9083 19.6382 28.276C19.6382 27.7566 19.785 27.2824 20.0785 26.8533C20.3834 26.4243 20.8125 26.0855 21.3657 25.8371C21.9303 25.5887 22.5909 25.4645 23.3474 25.4645C24.4652 25.4645 25.3572 25.7468 26.0234 26.3113C26.6896 26.8646 27.0566 27.6155 27.1243 28.564H24.8548C24.8209 28.1913 24.6628 27.8978 24.3805 27.6832C24.1095 27.4574 23.7426 27.3445 23.2796 27.3445C22.8506 27.3445 22.5175 27.4235 22.2803 27.5816C22.0545 27.7397 21.9416 27.9599 21.9416 28.2422C21.9416 28.5583 22.0997 28.8011 22.4158 28.9704C22.732 29.1285 23.2232 29.2922 23.8894 29.4616C24.5668 29.631 25.1257 29.806 25.5661 29.9867C26.0065 30.1673 26.3847 30.4496 26.7009 30.8335C27.0283 31.2061 27.1977 31.7029 27.209 32.324C27.209 32.8659 27.0566 33.3515 26.7517 33.7805C26.4581 34.2096 26.0291 34.5483 25.4645 34.7968C24.9112 35.0339 24.262 35.1524 23.5167 35.1524Z" fill="#F5F6FC"/>
</svg>
