<svg width="25" height="25" viewBox="0 0 25 25" fill="none" xmlns="http://www.w3.org/2000/svg">
<path d="M17.1634 24.7078C21.3384 24.7078 24.723 21.3233 24.723 17.1482C24.723 12.9732 21.3384 9.58862 17.1634 9.58862C12.9883 9.58862 9.60376 12.9732 9.60376 17.1482C9.60376 21.3233 12.9883 24.7078 17.1634 24.7078Z" fill="#4FBF9F"/>
<path d="M0.34729 11.5554V17.4955C0.34729 17.7589 0.39917 18.0197 0.499967 18.263C0.600765 18.5064 0.748506 18.7275 0.934755 18.9138C1.121 19.1 1.34212 19.2477 1.58546 19.3485C1.82881 19.4493 2.08963 19.5012 2.35302 19.5012C2.61642 19.5012 2.87724 19.4493 3.12058 19.3485C3.36393 19.2477 3.58504 19.1 3.77129 18.9138C3.95754 18.7275 4.10528 18.5064 4.20608 18.263C4.30688 18.0197 4.35876 17.7589 4.35876 17.4955V11.5554H0.34729Z" fill="white"/>
<path d="M2.35323 19.8482C1.72984 19.8459 1.13264 19.5972 0.691835 19.1564C0.251026 18.7156 0.00234537 18.1184 3.57668e-06 17.495V11.5555C-0.000204117 11.5098 0.00863551 11.4646 0.026012 11.4224C0.0433884 11.3801 0.0689574 11.3418 0.101242 11.3095C0.133527 11.2772 0.171888 11.2516 0.21411 11.2343C0.256332 11.2169 0.301578 11.208 0.347235 11.2083H4.3587C4.40436 11.208 4.4496 11.2169 4.49183 11.2343C4.53405 11.2516 4.57241 11.2772 4.60469 11.3095C4.63698 11.3418 4.66255 11.3801 4.67992 11.4224C4.6973 11.4646 4.70614 11.5098 4.70593 11.5555V17.4955C4.70795 17.8051 4.64847 18.1119 4.53095 18.3983C4.41343 18.6846 4.2402 18.9448 4.02133 19.1637C3.80246 19.3825 3.5423 19.5557 3.25595 19.6733C2.96959 19.7908 2.66275 19.8503 2.35323 19.8482ZM0.694467 11.9027V17.4955C0.698425 17.9342 0.874475 18.3538 1.18471 18.6639C1.49495 18.9741 1.91457 19.15 2.35323 19.1538C2.79198 19.15 3.21167 18.974 3.52193 18.6637C3.83218 18.3535 4.00817 17.9338 4.01199 17.495V11.9027H0.694467Z" fill="#193651"/>
<path d="M14.078 0.369385H4.35813V17.4956C4.35994 17.7595 4.3093 18.0211 4.20916 18.2652C4.10901 18.5094 3.96136 18.7312 3.77477 18.9177C3.58819 19.1043 3.36639 19.252 3.12226 19.3521C2.87812 19.4523 2.61653 19.5029 2.35266 19.5011H16.392C16.6557 19.5026 16.9171 19.4518 17.161 19.3515C17.4048 19.2513 17.6264 19.1036 17.8128 18.917C17.9991 18.7304 18.1466 18.5087 18.2466 18.2647C18.3466 18.0208 18.3972 17.7593 18.3954 17.4956V4.7286L14.078 0.369385Z" fill="#F16051"/>
<path d="M18.6668 4.45756L14.3092 0.138607C14.2831 0.101885 14.2483 0.0721404 14.208 0.0519887C14.1677 0.031837 14.1231 0.0218953 14.078 0.0230376H4.35818C4.31252 0.0228299 4.26727 0.0316696 4.22505 0.049046C4.18283 0.0664225 4.14447 0.0919915 4.11219 0.124276C4.0799 0.156561 4.05433 0.194922 4.03696 0.237144C4.01958 0.279366 4.01074 0.324612 4.01095 0.370269V17.4955C4.00658 17.934 3.8302 18.3534 3.51978 18.6632C3.20936 18.973 2.78971 19.1486 2.35114 19.1521C2.25905 19.1521 2.17073 19.1887 2.10561 19.2538C2.04049 19.319 2.00391 19.4073 2.00391 19.4994C2.00391 19.5915 2.04049 19.6798 2.10561 19.7449C2.17073 19.81 2.25905 19.8466 2.35114 19.8466H16.3921C17.0154 19.8443 17.6126 19.5956 18.0534 19.1548C18.4943 18.714 18.7429 18.1168 18.7453 17.4934V4.72844C18.7627 4.68082 18.7645 4.62888 18.7504 4.58016C18.7363 4.53145 18.707 4.4885 18.6668 4.45756ZM18.0498 17.4944C18.0457 17.9328 17.8697 18.3521 17.5597 18.6621C17.2497 18.9721 16.8304 19.1481 16.3921 19.1521H4.05069C4.26427 18.9333 4.43208 18.6741 4.54431 18.3896C4.65655 18.1052 4.71096 17.8012 4.70436 17.4955V0.755675H13.9238L18.0508 4.88271L18.0498 17.4944Z" fill="#193651"/>
<path d="M5.82397 1.83618V17.4956C5.83031 17.6892 5.81735 17.8829 5.78528 18.074H16.4307C16.5771 18.0721 16.7175 18.0157 16.8245 17.9158C16.9314 17.8159 16.9973 17.6797 17.0091 17.5338V4.72908L14.1162 1.83618H5.82397Z" fill="white"/>
<path d="M14.0781 0.369385V3.61161C14.0779 3.75348 14.1057 3.89399 14.1599 4.0251C14.2141 4.15621 14.2936 4.27533 14.394 4.37565C14.4943 4.47597 14.6134 4.5555 14.7445 4.6097C14.8756 4.66389 15.0161 4.69168 15.158 4.69148H18.4002L14.0781 0.369385Z" fill="white"/>
<path d="M18.398 5.07578H15.1558C14.9682 5.07619 14.7825 5.03956 14.6091 4.96799C14.4358 4.89642 14.2783 4.79132 14.1457 4.65872C14.0131 4.52611 13.908 4.36863 13.8364 4.1953C13.7649 4.02197 13.7282 3.83621 13.7286 3.64868V0.370376C13.7281 0.295688 13.7501 0.222576 13.7918 0.160618C13.8335 0.0986592 13.893 0.0507426 13.9624 0.023144C14.1193 -0.0155534 14.2709 -0.0155534 14.3483 0.100539L18.6296 4.38184C18.6772 4.41827 18.716 4.46489 18.7431 4.51829C18.7703 4.57168 18.7851 4.63049 18.7865 4.69037C18.7893 4.742 18.7812 4.79364 18.7626 4.8419C18.7441 4.89015 18.7155 4.93393 18.6788 4.97034C18.6421 5.00675 18.5981 5.03497 18.5497 5.05315C18.5013 5.07132 18.4496 5.07903 18.398 5.07578ZM14.4236 1.25833V3.64868C14.4236 3.84285 14.5008 4.02907 14.6381 4.16636C14.7754 4.30366 14.9616 4.3808 15.1558 4.3808H17.5471L14.4236 1.25833Z" fill="#193651"/>
<path d="M9.8354 14.564H6.9425V15.2966H9.8354V14.564Z" fill="#193651"/>
<path d="M11.0695 12.5198H6.9425V13.2524H11.0695V12.5198Z" fill="#193651"/>
<path d="M13.1911 10.4756H6.9425V11.2082H13.1911V10.4756Z" fill="#193651"/>
<path d="M15.8136 8.4314H6.9425V9.16403H15.8136V8.4314Z" fill="#193651"/>
<path d="M15.8136 6.38721H6.9425V7.11984H15.8136V6.38721Z" fill="#193651"/>
<path d="M7.67514 4.34302H6.9425V5.07566H7.67514V4.34302Z" fill="#193651"/>
<path d="M9.10227 4.34302H8.36963V5.07566H9.10227V4.34302Z" fill="#193651"/>
<path d="M10.5681 4.34302H9.83545V5.07566H10.5681V4.34302Z" fill="#193651"/>
<path d="M11.9951 4.34302H11.2625V5.07566H11.9951V4.34302Z" fill="#193651"/>
<path d="M17.1639 22.7804C20.2741 22.7804 22.7954 20.2591 22.7954 17.1489C22.7954 14.0387 20.2741 11.5173 17.1639 11.5173C14.0537 11.5173 11.5323 14.0387 11.5323 17.1489C11.5323 20.2591 14.0537 22.7804 17.1639 22.7804Z" fill="#FDBF5E"/>
<path d="M17.1639 23.1652C15.9739 23.1652 14.8106 22.8123 13.8211 22.1512C12.8316 21.49 12.0604 20.5503 11.605 19.4509C11.1496 18.3514 11.0304 17.1416 11.2626 15.9744C11.4948 14.8073 12.0678 13.7352 12.9093 12.8937C13.7508 12.0522 14.8229 11.4791 15.9901 11.247C17.1572 11.0148 18.367 11.134 19.4665 11.5894C20.5659 12.0448 21.5057 12.816 22.1668 13.8055C22.828 14.7949 23.1808 15.9583 23.1808 17.1483C23.1788 18.7434 22.5442 20.2727 21.4162 21.4006C20.2883 22.5286 18.7591 23.1632 17.1639 23.1652ZM17.1639 11.9027C16.1163 11.8956 15.0901 12.2002 14.2161 12.7778C13.342 13.3554 12.6594 14.1799 12.2552 15.1464C11.851 16.113 11.7434 17.1779 11.946 18.2058C12.1487 19.2337 12.6524 20.1781 13.3932 20.919C14.1341 21.6598 15.0785 22.1635 16.1064 22.3662C17.1343 22.5688 18.1992 22.4612 19.1658 22.057C20.1323 21.6528 20.9568 20.9702 21.5344 20.0961C22.112 19.2221 22.4166 18.1959 22.4095 17.1483C22.3974 15.7608 21.8408 14.4336 20.8597 13.4525C19.8786 12.4714 18.5514 11.9148 17.1639 11.9027Z" fill="#193651"/>
<path d="M17.1639 21.3527C16.3323 21.3527 15.5194 21.1061 14.828 20.6441C14.1366 20.1821 13.5977 19.5254 13.2795 18.7571C12.9613 17.9888 12.878 17.1434 13.0403 16.3278C13.2026 15.5123 13.6031 14.7631 14.1911 14.1751C14.7792 13.5871 15.5284 13.1867 16.344 13.0246C17.1596 12.8624 18.005 12.9457 18.7732 13.264C19.5415 13.5823 20.1981 14.1213 20.66 14.8128C21.1219 15.5043 21.3684 16.3172 21.3683 17.1488C21.3657 18.263 20.9219 19.3309 20.134 20.1187C19.346 20.9065 18.2781 21.3502 17.1639 21.3527Z" fill="white"/>
<path d="M19.1312 15.1816L16.7011 17.573L15.5057 16.4158L14.6167 17.3414L16.6996 19.4242L20.0166 16.0685L19.1312 15.1816Z" fill="#E1E6E9"/>
</svg>
