<svg width="20" height="20" viewBox="0 0 20 20" fill="none" xmlns="http://www.w3.org/2000/svg">
<g clip-path="url(#clip0_1_2659)">
<path d="M13.4918 0.360107H14.5009C14.5744 0.393379 14.6559 0.39667 14.7349 0.406542C15.7685 0.550598 16.7509 1.0303 17.5045 1.75204C18.2822 2.48622 18.8171 3.47267 19.0047 4.52567C19.0302 4.65547 19.0471 4.78673 19.0496 4.91872L19.08 4.87009V5.98086L19.0529 5.9326C18.9264 7.49016 17.9948 8.94352 16.6654 9.75484C15.8281 10.274 14.8358 10.5344 13.8519 10.5025C13.5163 10.4843 13.1759 10.4612 12.853 10.3629C11.8179 10.1355 10.8713 9.5479 10.1777 8.74974C9.45891 7.92489 9.01614 6.86165 8.95033 5.76843C8.89512 4.9955 9.02638 4.21197 9.31925 3.49461C9.66366 2.64965 10.2476 1.9056 10.9785 1.36082C11.6976 0.821161 12.5638 0.482592 13.457 0.383142L13.4918 0.360107ZM13.5408 1.55863C12.8486 1.64089 12.1817 1.91657 11.6307 2.34289C10.898 2.90522 10.3744 3.73446 10.1909 4.64048C10.0011 5.54942 10.1492 6.52528 10.6077 7.33331C11.0655 8.1534 11.8289 8.79727 12.7155 9.10769C13.585 9.41664 14.5645 9.40201 15.423 9.06418C16.3466 8.70696 17.1199 7.98302 17.5392 7.08651C17.952 6.21742 18.0219 5.19367 17.7345 4.27595C17.4467 3.33885 16.789 2.52278 15.9356 2.04015C15.2171 1.62663 14.363 1.45844 13.5408 1.55863Z" fill="#193651"/>
<path d="M6.6747 2.91106C6.82095 2.87304 6.97195 2.81893 7.12551 2.84964C7.35183 2.88949 7.53976 3.07157 7.59388 3.29461C7.63921 3.50996 7.55878 3.74432 7.38657 3.8818C7.26079 3.98856 7.09151 4.00575 6.93977 4.05291C6.02388 4.3158 5.20452 4.89824 4.65571 5.67702C4.16102 6.37317 3.88498 7.22069 3.87145 8.07405C3.86523 8.89159 3.87693 9.70913 3.86523 10.5263C3.82209 12.2872 3.00784 14.01 1.67697 15.1628C1.62103 15.2165 1.54132 15.2619 1.53145 15.3467C1.51097 15.4688 1.62505 15.5833 1.7468 15.5697C5.97672 15.5712 10.2066 15.569 14.4365 15.5708C14.5291 15.5646 14.638 15.5913 14.7155 15.5262C14.7813 15.4659 14.8153 15.3555 14.7623 15.2761C14.6943 15.1994 14.611 15.1376 14.536 15.0677C13.9199 14.5039 13.4146 13.8184 13.0636 13.0601C12.9583 12.8228 13.0475 12.5292 13.2486 12.3712C13.5207 12.1595 13.9609 12.2495 14.1163 12.5599C14.3967 13.1471 14.7773 13.6871 15.2504 14.135C15.3839 14.2699 15.5466 14.3752 15.6629 14.5273C15.9173 14.8429 16.016 15.2758 15.9265 15.671C15.8047 16.2578 15.2574 16.7207 14.6574 16.7372C13.4464 16.7463 12.2348 16.7335 11.0238 16.7438C10.8849 17.4403 10.4757 18.0761 9.90646 18.4995C9.44906 18.8454 8.88782 19.0395 8.31781 19.0801H8.01435C7.4341 19.0435 6.86336 18.8428 6.40084 18.4889C5.83522 18.0659 5.43486 17.4319 5.29263 16.7405C4.1113 16.7394 2.92996 16.7405 1.74899 16.7397C1.383 16.7456 1.01811 16.5993 0.761076 16.3386C0.534754 16.1196 0.406054 15.8187 0.359985 15.5105V15.2904C0.384117 15.0297 0.470404 14.7727 0.629085 14.5632C0.754129 14.3851 0.940232 14.267 1.09124 14.1138C1.93656 13.3029 2.49743 12.2016 2.65099 11.04C2.71461 10.6034 2.69779 10.1614 2.69999 9.72229C2.70108 9.17203 2.69816 8.62213 2.70145 8.07223C2.71571 6.87883 3.13398 5.69347 3.87986 4.76113C4.58442 3.869 5.57892 3.21271 6.6747 2.91106ZM6.50797 16.7419C6.65897 17.1664 6.97963 17.5266 7.38401 17.7255C7.85091 17.9591 8.42421 17.9686 8.8966 17.7445C9.32036 17.5511 9.65417 17.1796 9.81249 16.7423C8.71086 16.7419 7.60923 16.743 6.50797 16.7419Z" fill="#193651"/>
<path d="M15.5287 3.86649C15.7126 3.65406 16.0567 3.61421 16.2866 3.77399C16.5042 3.91402 16.5996 4.20908 16.5133 4.45149C16.4753 4.57032 16.3879 4.66246 16.3082 4.75533C15.5587 5.62661 14.8124 6.50155 14.0625 7.3732C13.8593 7.61817 13.4527 7.6434 13.2245 7.41964C12.7602 6.95858 12.2984 6.49534 11.8363 6.03245C11.6593 5.85659 11.6209 5.56263 11.7416 5.34545C11.9035 5.0204 12.3832 4.93814 12.645 5.18932C12.962 5.49974 13.2732 5.816 13.5883 6.12861C14.2359 5.37506 14.8808 4.61968 15.5287 3.86649Z" fill="#193651"/>
<path d="M13.5408 1.55872C14.3631 1.45854 15.2172 1.62672 15.9356 2.04025C16.789 2.52287 17.4467 3.33895 17.7345 4.27604C18.0219 5.19376 17.952 6.21751 17.5392 7.0866C17.1199 7.98311 16.3466 8.70705 15.423 9.06427C14.5645 9.4021 13.585 9.41673 12.7155 9.10778C11.8289 8.79736 11.0655 8.15349 10.6077 7.3334C10.1492 6.52537 10.0011 5.54951 10.1909 4.64057C10.3745 3.73455 10.898 2.90531 11.6307 2.34298C12.1817 1.91666 12.8486 1.64098 13.5408 1.55872ZM15.5287 3.86654C14.8808 4.61973 14.2358 5.37511 13.5883 6.12866C13.2731 5.81605 12.962 5.49979 12.645 5.18937C12.3832 4.93819 11.9035 5.02045 11.7415 5.34549C11.6209 5.56268 11.6593 5.85664 11.8362 6.0325C12.2984 6.49539 12.7602 6.95863 13.2245 7.41969C13.4526 7.64345 13.8592 7.61822 14.0625 7.37325C14.8124 6.5016 15.5587 5.62666 16.3082 4.75538C16.3879 4.66251 16.4753 4.57037 16.5133 4.45154C16.5996 4.20913 16.5042 3.91407 16.2866 3.77404C16.0566 3.61426 15.7126 3.65411 15.5287 3.86654Z" fill="#4CAF50"/>
<path d="M7.59534 3.20393C8.17632 3.16773 8.76351 3.23391 9.32072 3.40392C9.02786 4.12128 8.8966 4.90481 8.95181 5.67775C9.01762 6.77096 9.46039 7.8342 10.1792 8.65905C10.8728 9.45721 11.8194 10.0448 12.8545 10.2722C12.8391 10.2802 12.8088 10.2967 12.7934 10.3051C12.8168 10.9852 12.9645 11.6616 13.2501 12.2806C13.049 12.4385 12.9598 12.7321 13.0651 12.9694C13.4161 13.7277 13.9214 14.4133 14.5375 14.9771C14.6124 15.0469 14.6958 15.1087 14.7638 15.1855C14.8168 15.2648 14.7828 15.3752 14.717 15.4355C14.6395 15.5006 14.5305 15.4739 14.438 15.4802C10.2081 15.4783 5.97818 15.4805 1.74827 15.4791C1.62651 15.4926 1.51244 15.3781 1.53291 15.256C1.54279 15.1712 1.62249 15.1259 1.67843 15.0721C3.00931 13.9193 3.82355 12.1965 3.8667 10.4356C3.8784 9.61845 3.8667 8.80091 3.87291 7.98338C3.88644 7.13001 4.16249 6.28249 4.65718 5.58634C5.20598 4.80756 6.02535 4.22512 6.94124 3.96223C7.09297 3.91507 7.26226 3.89788 7.38803 3.79112C7.56024 3.65365 7.64068 3.41928 7.59534 3.20393Z" fill="#FFC007"/>
<path d="M6.5094 16.6514C7.61066 16.6525 8.71229 16.6514 9.81392 16.6517C9.6556 17.089 9.32179 17.4605 8.89803 17.6539C8.42564 17.878 7.85234 17.8685 7.38544 17.6349C6.98106 17.436 6.6604 17.0759 6.5094 16.6514Z" fill="#FFC007"/>
</g>
<defs>
<clipPath id="clip0_1_2659">
<rect width="18.72" height="18.72" fill="white" transform="translate(0.359985 0.360107)"/>
</clipPath>
</defs>
</svg>
