<svg width="21" height="23" viewBox="0 0 21 23" fill="none" xmlns="http://www.w3.org/2000/svg">
<path d="M10.4848 21.0861C16.1305 21.0861 20.7072 16.5094 20.7072 10.8637C20.7072 5.21808 16.1305 0.641357 10.4848 0.641357C4.83917 0.641357 0.262451 5.21808 0.262451 10.8637C0.262451 16.5094 4.83917 21.0861 10.4848 21.0861Z" fill="#FDBF5E"/>
<path d="M16.1413 10.9667C16.1406 10.1694 15.9715 9.38116 15.6451 8.65365C15.3188 7.92615 14.8425 7.27575 14.2474 6.74502C13.6523 6.21429 12.9519 5.81519 12.192 5.57383C11.432 5.33246 10.6297 5.25428 9.83744 5.34439C8.64231 5.47908 7.52093 5.99022 6.6353 6.80394C5.74968 7.61767 5.14566 8.69186 4.9105 9.87135C4.67534 11.0508 4.82122 12.2745 5.32706 13.3657C5.8329 14.4568 6.67251 15.3589 7.72461 15.9417C7.88925 16.0235 8.02762 16.1499 8.12397 16.3065C8.22032 16.4631 8.27079 16.6436 8.26964 16.8275V20.1327L10.246 22.0067C10.3091 22.0564 10.3872 22.0834 10.4675 22.0834C10.5479 22.0834 10.6259 22.0564 10.6891 22.0067L12.6654 20.1327V16.8275C12.6643 16.6436 12.7147 16.4631 12.8111 16.3065C12.9074 16.1499 13.0458 16.0235 13.2104 15.9417C14.104 15.4559 14.8487 14.7364 15.3649 13.8601C15.8811 12.9838 16.1495 11.9837 16.1413 10.9667Z" fill="white"/>
<path d="M10.4854 22.4498C10.3214 22.4511 10.163 22.3901 10.0422 22.2792L8.0659 20.4052C8.00397 20.3408 7.96759 20.2561 7.96353 20.1668V16.8616C7.96043 16.7354 7.92416 16.6123 7.85834 16.5046C7.79253 16.397 7.6995 16.3086 7.58864 16.2483C6.47592 15.6331 5.58736 14.6804 5.05113 13.5276C4.51489 12.3747 4.3587 11.0813 4.60508 9.83399C4.85146 8.58664 5.48767 7.44979 6.42196 6.58741C7.35624 5.72503 8.5403 5.1817 9.80335 5.03579C10.0297 5.00738 10.2578 4.99597 10.4859 5.00167C11.8152 5.00246 13.1066 5.44498 14.157 6.25965C15.2075 7.07433 15.9574 8.21498 16.289 9.5023C16.6206 10.7896 16.5149 12.1506 15.9888 13.3714C15.4626 14.5922 14.5456 15.6035 13.3821 16.2463C13.2684 16.3032 13.1731 16.3908 13.1068 16.4993C13.0405 16.6077 13.006 16.7325 13.0072 16.8596V20.1649C13.0084 20.2096 12.9999 20.2541 12.9822 20.2953C12.9645 20.3365 12.9381 20.3733 12.9048 20.4033L10.9285 22.2772C10.808 22.3888 10.6496 22.4505 10.4854 22.4498ZM8.64554 19.9962L10.4859 21.7683L12.3262 19.9962V16.8611C12.3289 16.6167 12.3967 16.3774 12.5224 16.1679C12.6482 15.9583 12.8275 15.786 13.0418 15.6687C14.0769 15.1006 14.8935 14.2044 15.3632 13.1212C15.8329 12.038 15.929 10.8293 15.6362 9.68555C15.3435 8.54176 14.6785 7.52785 13.7462 6.80351C12.8138 6.07917 11.667 5.68555 10.4863 5.68465C10.2813 5.67903 10.0762 5.69045 9.87307 5.71878C8.66191 5.85643 7.53452 6.40503 6.67883 7.27315C5.82313 8.14126 5.29083 9.27644 5.17064 10.4895C5.08615 11.5179 5.29799 12.5491 5.7811 13.461C6.2642 14.3728 6.99836 15.1273 7.89674 15.635C8.1111 15.7524 8.29037 15.9247 8.41613 16.1343C8.5419 16.3438 8.60964 16.5831 8.61239 16.8274V19.9962H8.64652H8.64554Z" fill="#193651"/>
<path d="M9.56494 19.4848V16.8611C9.5646 16.4499 9.45375 16.0463 9.24397 15.6926C9.0342 15.339 8.73321 15.0481 8.37251 14.8507C7.61914 14.4331 7.00464 13.8039 6.60497 13.0408C6.2053 12.2778 6.03798 11.4144 6.12368 10.5573C6.22945 9.5565 6.67097 8.62104 7.37633 7.90329C8.08169 7.18554 9.00931 6.72778 10.0081 6.60461C10.1768 6.5763 10.348 6.56487 10.519 6.57048C11.4948 6.56974 12.4431 6.89396 13.2143 7.49196C13.9854 8.08997 14.5355 8.92771 14.7777 9.87301C15.0199 10.8183 14.9404 11.8174 14.5519 12.7125C14.1633 13.6076 13.4878 14.3479 12.6318 14.8165C12.2711 15.014 11.9701 15.3048 11.7603 15.6585C11.5506 16.0122 11.4397 16.4158 11.4394 16.827V19.4493L10.5195 20.473L9.56494 19.4848Z" fill="#2EA2DB"/>
<path d="M8.3042 17.134V20.1326L10.2805 22.0066C10.3437 22.0563 10.4217 22.0833 10.5021 22.0833C10.5825 22.0833 10.6605 22.0563 10.7237 22.0066L12.7 20.1326V17.134" fill="#E1E6E9"/>
<path d="M10.4848 22.4497C10.3209 22.451 10.1625 22.39 10.0417 22.2791L8.06538 20.4052C8.00346 20.3407 7.96707 20.256 7.96301 20.1668V17.1682C7.96301 17.0777 7.99896 16.9908 8.06296 16.9269C8.12696 16.8629 8.21376 16.8269 8.30426 16.8269C8.39477 16.8269 8.48156 16.8629 8.54556 16.9269C8.60955 16.9908 8.64551 17.0777 8.64551 17.1682V19.9957L10.4858 21.7677L12.3261 19.9957V17.1682C12.3261 17.0777 12.3621 16.9908 12.4261 16.9269C12.4901 16.8629 12.5769 16.8269 12.6674 16.8269C12.7579 16.8269 12.8447 16.8629 12.9087 16.9269C12.9727 16.9908 13.0086 17.0777 13.0086 17.1682V20.1668C13.0099 20.2116 13.0013 20.2561 12.9837 20.2972C12.966 20.3384 12.9396 20.3752 12.9063 20.4052L10.9299 22.2791C10.8086 22.3905 10.6495 22.4515 10.4848 22.4497Z" fill="#193651"/>
<path d="M9.29248 21.0867L10.2806 22.0407C10.3438 22.0904 10.4218 22.1174 10.5022 22.1174C10.5826 22.1174 10.6606 22.0904 10.7238 22.0407L11.7119 21.0867H9.29248Z" fill="#193651"/>
<path d="M10.4854 22.4496C10.3215 22.451 10.1631 22.3902 10.0423 22.2795L9.05409 21.3254C9.00276 21.2794 8.96819 21.2175 8.95584 21.1497C8.94348 21.0818 8.95403 21.0118 8.98584 20.9506C9.01063 20.8901 9.05294 20.8384 9.10733 20.8022C9.16171 20.766 9.22567 20.7469 9.29102 20.7473H11.7105C11.7771 20.742 11.8436 20.7592 11.8992 20.7963C11.9548 20.8333 11.9963 20.888 12.0171 20.9515C12.0489 21.0127 12.0595 21.0828 12.0471 21.1506C12.0348 21.2185 12.0002 21.2803 11.9489 21.3264L10.9607 22.2805C10.8242 22.3857 10.6577 22.445 10.4854 22.4496ZM10.1441 21.4259L10.4854 21.7671L10.8266 21.4259H10.1441Z" fill="#193651"/>
<path d="M13.7901 10.1823C13.656 9.56433 13.3469 8.99803 12.8998 8.55096C12.4526 8.10388 11.8862 7.79491 11.2683 7.66092C11.2209 7.65033 11.1717 7.65014 11.1242 7.66035C11.0767 7.67056 11.032 7.69093 10.9932 7.72007C10.9543 7.7492 10.9222 7.78642 10.8991 7.82914C10.876 7.87186 10.8624 7.91908 10.8593 7.96756C10.861 8.03743 10.8851 8.10491 10.928 8.16009C10.9709 8.21527 11.0304 8.25526 11.0976 8.27419C11.5961 8.38854 12.0522 8.64098 12.4138 9.00259C12.7754 9.36419 13.0279 9.82033 13.1422 10.3188C13.1612 10.3861 13.2011 10.4455 13.2563 10.4884C13.3115 10.5313 13.379 10.5554 13.4489 10.5572C13.4985 10.5648 13.5492 10.56 13.5965 10.5433C13.6438 10.5266 13.6863 10.4984 13.7201 10.4613C13.7538 10.4241 13.7779 10.3793 13.7901 10.3306C13.8024 10.2819 13.8023 10.2309 13.7901 10.1823Z" fill="white"/>
<path d="M19.2424 11.6477H17.7799C17.6893 11.6477 17.6025 11.6118 17.5385 11.5478C17.4745 11.4838 17.4386 11.397 17.4386 11.3065C17.4386 11.216 17.4745 11.1292 17.5385 11.0652C17.6025 11.0012 17.6893 10.9652 17.7799 10.9652H19.2424C19.2879 10.9624 19.3336 10.9692 19.3763 10.9854C19.4189 11.0015 19.4577 11.0266 19.49 11.0588C19.5223 11.0911 19.5473 11.1299 19.5635 11.1726C19.5796 11.2153 19.5865 11.2609 19.5836 11.3065C19.5836 11.3513 19.5748 11.3957 19.5576 11.4371C19.5405 11.4785 19.5153 11.5161 19.4836 11.5478C19.452 11.5795 19.4143 11.6046 19.3729 11.6218C19.3315 11.6389 19.2872 11.6477 19.2424 11.6477Z" fill="#193651"/>
<path d="M3.15921 11.6477H1.69379C1.60328 11.6477 1.51649 11.6118 1.45249 11.5478C1.38849 11.4838 1.35254 11.397 1.35254 11.3065C1.35254 11.216 1.38849 11.1292 1.45249 11.0652C1.51649 11.0012 1.60328 10.9652 1.69379 10.9652H3.15921C3.20477 10.9624 3.25041 10.9692 3.29311 10.9854C3.33581 11.0015 3.37458 11.0266 3.40686 11.0588C3.43913 11.0911 3.46417 11.1299 3.48031 11.1726C3.49645 11.2153 3.50332 11.2609 3.50046 11.3065C3.50046 11.3513 3.49164 11.3957 3.47449 11.4371C3.45734 11.4785 3.4322 11.5161 3.40051 11.5478C3.36883 11.5795 3.33121 11.6046 3.2898 11.6218C3.2484 11.6389 3.20403 11.6477 3.15921 11.6477Z" fill="#193651"/>
<path d="M17.2323 9.50084C17.2138 9.4152 17.2279 9.32572 17.272 9.25001C17.3162 9.1743 17.3871 9.11787 17.4707 9.09183L18.8679 8.71694C18.911 8.70393 18.9562 8.69973 19.001 8.70461C19.0457 8.70948 19.089 8.72331 19.1283 8.74529C19.1676 8.76727 19.202 8.79695 19.2296 8.83254C19.2571 8.86812 19.2772 8.9089 19.2887 8.95242C19.3001 8.99595 19.3026 9.04134 19.2962 9.08587C19.2897 9.13041 19.2742 9.17318 19.2508 9.21162C19.2275 9.25007 19.1966 9.28341 19.16 9.30965C19.1234 9.33589 19.082 9.35449 19.038 9.36434L17.6409 9.73923C17.5553 9.75767 17.4659 9.74345 17.3903 9.69933C17.3147 9.65522 17.2584 9.58441 17.2323 9.50084Z" fill="#193651"/>
<path d="M1.69328 13.6581C1.67674 13.6157 1.66998 13.5701 1.67352 13.5247C1.67706 13.4793 1.69081 13.4353 1.71373 13.396C1.73664 13.3567 1.76815 13.3231 1.80589 13.2976C1.84362 13.2722 1.88662 13.2556 1.93167 13.2491L3.32884 12.8742C3.37184 12.8614 3.41696 12.8574 3.46153 12.8624C3.5061 12.8675 3.54921 12.8814 3.5883 12.9033C3.62739 12.9253 3.66167 12.9549 3.6891 12.9904C3.71653 13.0259 3.73656 13.0665 3.74799 13.1099C3.75942 13.1533 3.76202 13.1985 3.75564 13.2429C3.74926 13.2873 3.73403 13.3299 3.71085 13.3683C3.68768 13.4067 3.65702 13.4401 3.62071 13.4664C3.5844 13.4927 3.54317 13.5115 3.49947 13.5216L2.10229 13.8965C2.01666 13.9151 1.92717 13.9009 1.85146 13.8568C1.77575 13.8126 1.71932 13.7418 1.69328 13.6581Z" fill="#193651"/>
<path d="M16.5162 7.79724C16.493 7.75715 16.4781 7.71279 16.4723 7.6668C16.4666 7.62081 16.4703 7.57415 16.483 7.52959C16.4958 7.48504 16.5174 7.44352 16.5465 7.4075C16.5757 7.37149 16.6118 7.34172 16.6527 7.31998L17.9134 6.60433C17.9537 6.58069 17.9984 6.56534 18.0447 6.5592C18.0911 6.55305 18.1382 6.55623 18.1833 6.56854C18.2284 6.58085 18.2706 6.60205 18.3074 6.63089C18.3442 6.65973 18.3749 6.69563 18.3976 6.73648C18.4203 6.77734 18.4347 6.82233 18.4398 6.8688C18.4449 6.91528 18.4406 6.9623 18.4273 7.00712C18.414 7.05193 18.3919 7.09364 18.3622 7.12979C18.3326 7.16593 18.296 7.19579 18.2546 7.21761L16.994 7.93326C16.9539 7.9566 16.9095 7.9716 16.8635 7.97739C16.8175 7.98317 16.7708 7.9796 16.7262 7.9669C16.6815 7.9542 16.64 7.93264 16.6039 7.90348C16.5678 7.87433 16.538 7.83819 16.5162 7.79724Z" fill="#193651"/>
<path d="M2.57957 15.8392C2.55633 15.7991 2.54141 15.7548 2.5357 15.7088C2.53 15.6628 2.53363 15.6161 2.54637 15.5716C2.55911 15.527 2.58071 15.4855 2.60987 15.4495C2.63902 15.4135 2.67515 15.3837 2.71607 15.362L3.97675 14.6463C4.01708 14.6227 4.06173 14.6073 4.10808 14.6012C4.15443 14.595 4.20154 14.5982 4.24665 14.6105C4.29175 14.6228 4.33394 14.644 4.37074 14.6729C4.40754 14.7017 4.43821 14.7376 4.46094 14.7785C4.48367 14.8193 4.49802 14.8643 4.50312 14.9108C4.50823 14.9573 4.50401 15.0043 4.49069 15.0491C4.47737 15.0939 4.45524 15.1356 4.42558 15.1718C4.39593 15.2079 4.35935 15.2378 4.31799 15.2596L3.05732 15.9752C3.01724 15.9986 2.97286 16.0136 2.92684 16.0194C2.88082 16.0252 2.83411 16.0216 2.78951 16.0089C2.7449 15.9962 2.70331 15.9746 2.66724 15.9455C2.63117 15.9163 2.60135 15.8802 2.57957 15.8392Z" fill="#193651"/>
<path d="M15.4256 6.36597C15.3933 6.33519 15.3676 6.29817 15.35 6.25715C15.3324 6.21613 15.3234 6.17197 15.3234 6.12734C15.3234 6.08271 15.3324 6.03855 15.35 5.99753C15.3676 5.95651 15.3933 5.91949 15.4256 5.88871L16.4494 4.86496C16.5127 4.80167 16.5985 4.76611 16.688 4.76611C16.7775 4.76611 16.8633 4.80167 16.9266 4.86496C16.9899 4.92825 17.0255 5.01409 17.0255 5.10359C17.0255 5.19309 16.9899 5.27893 16.9266 5.34222L15.9029 6.36597C15.8721 6.39829 15.8351 6.42401 15.7941 6.44159C15.753 6.45917 15.7089 6.46824 15.6643 6.46824C15.6196 6.46824 15.5755 6.45917 15.5344 6.44159C15.4934 6.42401 15.4564 6.39829 15.4256 6.36597Z" fill="#193651"/>
<path d="M4.04452 17.7473C4.01221 17.7165 3.98648 17.6795 3.9689 17.6385C3.95132 17.5975 3.94226 17.5533 3.94226 17.5087C3.94226 17.4641 3.95132 17.4199 3.9689 17.3789C3.98648 17.3379 4.01221 17.3008 4.04452 17.2701L5.06828 16.2463C5.13157 16.183 5.2174 16.1475 5.30691 16.1475C5.39641 16.1475 5.48225 16.183 5.54554 16.2463C5.60883 16.3096 5.64438 16.3954 5.64438 16.4849C5.64438 16.5744 5.60883 16.6603 5.54554 16.7236L4.52179 17.7473C4.49101 17.7796 4.45399 17.8054 4.41297 17.8229C4.37195 17.8405 4.32778 17.8496 4.28316 17.8496C4.23853 17.8496 4.19437 17.8405 4.15335 17.8229C4.11233 17.8054 4.0753 17.7796 4.04452 17.7473Z" fill="#193651"/>
<path d="M13.9607 5.24208C13.884 5.19249 13.828 5.11681 13.8029 5.02905C13.7778 4.9413 13.7853 4.84742 13.8242 4.76481L14.5739 3.53827C14.6203 3.45912 14.6958 3.40129 14.7843 3.37713C14.8728 3.35298 14.9673 3.36443 15.0474 3.40903C15.1276 3.45364 15.1871 3.52785 15.2132 3.61578C15.2393 3.70371 15.23 3.79838 15.1872 3.87952L14.4716 5.14019C14.4102 5.21202 14.3264 5.26112 14.2338 5.2796C14.1411 5.29808 14.0449 5.28486 13.9607 5.24208Z" fill="#193651"/>
<path d="M12.291 4.55948C12.2476 4.54973 12.2067 4.53115 12.1709 4.5049C12.1351 4.47865 12.105 4.44529 12.0827 4.40691C12.0603 4.36853 12.0461 4.32595 12.0409 4.28182C12.0357 4.2377 12.0397 4.19299 12.0526 4.15047L12.4275 2.7533C12.4522 2.66985 12.5085 2.59933 12.5844 2.55667C12.6602 2.514 12.7497 2.50255 12.8339 2.52473C12.9181 2.54691 12.9903 2.60099 13.0353 2.6755C13.0802 2.75001 13.0944 2.83911 13.0749 2.92392L12.7 4.3211C12.6739 4.40477 12.6175 4.47565 12.5418 4.51977C12.4661 4.5639 12.3766 4.57806 12.291 4.55948Z" fill="#193651"/>
<path d="M10.4848 4.32151C10.4393 4.32437 10.3936 4.3175 10.3509 4.30136C10.3082 4.28522 10.2695 4.26018 10.2372 4.2279C10.2049 4.19563 10.1799 4.15685 10.1637 4.11415C10.1476 4.07146 10.1407 4.02581 10.1436 3.98026V2.51532C10.1436 2.42482 10.1795 2.33802 10.2435 2.27402C10.3075 2.21003 10.3943 2.17407 10.4848 2.17407C10.5753 2.17407 10.6621 2.21003 10.7261 2.27402C10.7901 2.33802 10.8261 2.42482 10.8261 2.51532V3.98075C10.8259 4.07117 10.7899 4.15784 10.726 4.22173C10.662 4.28562 10.5752 4.32151 10.4848 4.32151Z" fill="#193651"/>
<path d="M8.27056 4.32158L7.89567 2.92441C7.87609 2.8396 7.8903 2.7505 7.93528 2.67599C7.98026 2.60148 8.05249 2.5474 8.13665 2.52522C8.22081 2.50304 8.3103 2.51449 8.38617 2.55716C8.46203 2.59982 8.51831 2.67034 8.54307 2.75378L8.91796 4.15096C8.93072 4.19396 8.93472 4.23907 8.92971 4.28364C8.9247 4.32821 8.91079 4.37132 8.8888 4.41042C8.86682 4.44951 8.83721 4.48379 8.80173 4.51122C8.76624 4.53865 8.72561 4.55867 8.68224 4.5701C8.63887 4.58153 8.59365 4.58413 8.54926 4.57776C8.50486 4.57138 8.4622 4.55615 8.42381 4.53297C8.38541 4.50979 8.35206 4.47914 8.32573 4.44282C8.29941 4.40651 8.28065 4.36528 8.27056 4.32158Z" fill="#193651"/>
<path d="M6.53273 5.13965L5.81708 3.87898C5.79113 3.84134 5.77315 3.7988 5.76424 3.75397C5.75533 3.70913 5.75569 3.66295 5.76528 3.61825C5.77486 3.57356 5.79348 3.53129 5.81999 3.49406C5.84651 3.45682 5.88036 3.4254 5.91946 3.40171C5.95955 3.37847 6.00391 3.36355 6.04989 3.35785C6.09588 3.35214 6.14255 3.35577 6.1871 3.36851C6.23165 3.38125 6.27318 3.40285 6.3092 3.43201C6.34521 3.46117 6.37498 3.49729 6.39672 3.53821L7.11236 4.79889C7.13561 4.83898 7.15053 4.88334 7.15624 4.92933C7.16194 4.97532 7.15831 5.02198 7.14557 5.06654C7.13283 5.11109 7.11123 5.15261 7.08207 5.18863C7.05292 5.22465 7.01679 5.25441 6.97587 5.27615C6.89717 5.30437 6.81146 5.30632 6.73156 5.28171C6.65167 5.2571 6.5819 5.20726 6.53273 5.13965Z" fill="#193651"/>
<path d="M5.06534 6.36597L4.04159 5.34222C3.9783 5.27893 3.94275 5.19309 3.94275 5.10359C3.94275 5.01409 3.9783 4.92825 4.04159 4.86496C4.10488 4.80167 4.19072 4.76611 4.28023 4.76611C4.36973 4.76611 4.45557 4.80167 4.51885 4.86496L5.54261 5.88871C5.6059 5.952 5.64145 6.03784 5.64145 6.12734C5.64145 6.21684 5.6059 6.30268 5.54261 6.36597C5.47932 6.42926 5.39348 6.46482 5.30398 6.46482C5.21447 6.46482 5.12863 6.42926 5.06534 6.36597Z" fill="#193651"/>
<path d="M16.4479 17.7473L15.4242 16.7236C15.3928 16.6922 15.368 16.655 15.351 16.6141C15.3341 16.5731 15.3253 16.5293 15.3253 16.4849C15.3253 16.4406 15.3341 16.3967 15.351 16.3558C15.368 16.3149 15.3928 16.2776 15.4242 16.2463C15.4555 16.215 15.4927 16.1901 15.5337 16.1732C15.5746 16.1562 15.6185 16.1475 15.6628 16.1475C15.7071 16.1475 15.751 16.1562 15.7919 16.1732C15.8329 16.1901 15.8701 16.215 15.9014 16.2463L16.9252 17.2701C16.9885 17.3333 17.024 17.4192 17.024 17.5087C17.024 17.5982 16.9885 17.684 16.9252 17.7473C16.8619 17.8106 16.7761 17.8462 16.6865 17.8462C16.597 17.8462 16.5112 17.8106 16.4479 17.7473Z" fill="#193651"/>
<path d="M3.97671 7.93301L2.71604 7.21736C2.67469 7.19554 2.63811 7.16569 2.60845 7.12955C2.5788 7.0934 2.55666 7.05169 2.54335 7.00687C2.53003 6.96206 2.5258 6.91503 2.53091 6.86855C2.53602 6.82208 2.55036 6.7771 2.57309 6.73624C2.59583 6.69539 2.6265 6.65948 2.6633 6.63064C2.70009 6.6018 2.74229 6.5806 2.78739 6.56829C2.8325 6.55598 2.8796 6.55281 2.92595 6.55896C2.9723 6.5651 3.01695 6.58044 3.05729 6.60409L4.31797 7.31974C4.39459 7.36932 4.45065 7.445 4.47575 7.53276C4.50085 7.62051 4.49328 7.71439 4.45447 7.79699C4.43269 7.83794 4.40287 7.87408 4.3668 7.90323C4.33072 7.93239 4.28914 7.95396 4.24453 7.96665C4.19992 7.97935 4.15321 7.98293 4.10719 7.97714C4.06117 7.97136 4.01679 7.95635 3.97671 7.93301Z" fill="#193651"/>
<path d="M17.9133 15.9752L16.6526 15.2595C16.5735 15.2131 16.5157 15.1376 16.4915 15.0491C16.4674 14.9606 16.4788 14.8662 16.5234 14.786C16.568 14.7059 16.6422 14.6464 16.7302 14.6203C16.8181 14.5941 16.9128 14.6035 16.9939 14.6463L18.2546 15.3619C18.3312 15.4115 18.3873 15.4872 18.4123 15.5749C18.4374 15.6627 18.4299 15.7566 18.3911 15.8392C18.3693 15.8801 18.3395 15.9163 18.3034 15.9454C18.2673 15.9746 18.2257 15.9961 18.1811 16.0088C18.1365 16.0215 18.0898 16.0251 18.0438 16.0193C17.9978 16.0135 17.9534 15.9985 17.9133 15.9752Z" fill="#193651"/>
<path d="M3.3293 9.73912L1.93213 9.36424C1.84869 9.33947 1.77817 9.2832 1.7355 9.20733C1.69284 9.13147 1.68138 9.04197 1.70356 8.95781C1.72575 8.87365 1.77982 8.80143 1.85433 8.75645C1.92885 8.71147 2.01795 8.69726 2.10275 8.71684L3.49993 9.09172C3.54327 9.10147 3.58413 9.12006 3.61997 9.14631C3.65581 9.17256 3.68585 9.20591 3.70822 9.2443C3.73059 9.28268 3.74481 9.32526 3.74999 9.36938C3.75517 9.4135 3.75119 9.45822 3.73831 9.50074C3.71228 9.58441 3.65584 9.65529 3.58014 9.69942C3.50443 9.74354 3.41494 9.75771 3.3293 9.73912Z" fill="#193651"/>
<path d="M18.8679 13.8964L17.4707 13.5215C17.3877 13.4964 17.3177 13.4401 17.2753 13.3644C17.233 13.2888 17.2216 13.1996 17.2437 13.1158C17.2657 13.0319 17.3194 12.9598 17.3935 12.9148C17.4676 12.8697 17.5563 12.8551 17.6409 12.8741L19.038 13.249C19.0814 13.2587 19.1223 13.2773 19.1581 13.3036C19.1939 13.3298 19.224 13.3632 19.2463 13.4015C19.2687 13.4399 19.2829 13.4825 19.2881 13.5266C19.2933 13.5708 19.2893 13.6155 19.2764 13.658C19.2504 13.7416 19.194 13.8124 19.1184 13.8565C19.0428 13.9006 18.9535 13.9148 18.8679 13.8964Z" fill="#193651"/>
<path d="M10.1788 13.7945V17.1339H10.8262V13.7945L12.2234 11.4433C12.2458 11.4075 12.2609 11.3677 12.2679 11.326C12.2749 11.2844 12.2737 11.2418 12.2642 11.2007C12.2547 11.1595 12.2373 11.1206 12.2128 11.0862C12.1883 11.0518 12.1573 11.0226 12.1215 11.0002C12.0857 10.9778 12.0458 10.9626 12.0042 10.9556C11.9626 10.9486 11.92 10.9499 11.8788 10.9593C11.8377 10.9688 11.7988 10.9863 11.7644 11.0108C11.73 11.0353 11.7008 11.0663 11.6783 11.1021L10.4854 13.0784L9.293 11.1021C9.2706 11.0663 9.24137 11.0353 9.20697 11.0108C9.17257 10.9863 9.13369 10.9688 9.09254 10.9593C9.05139 10.9499 9.00878 10.9486 8.96715 10.9556C8.92551 10.9626 8.88566 10.9778 8.84987 11.0002C8.81408 11.0226 8.78306 11.0518 8.75857 11.0862C8.73409 11.1206 8.71661 11.1595 8.70715 11.2007C8.69769 11.2418 8.69643 11.2844 8.70343 11.326C8.71044 11.3677 8.72557 11.4075 8.74798 11.4433L10.1788 13.7945Z" fill="#193651"/>
<path d="M13.2456 17.5088H7.72516C7.63465 17.5088 7.54785 17.4729 7.48386 17.4089C7.41986 17.3449 7.38391 17.2581 7.38391 17.1676C7.38391 17.0771 7.41986 16.9903 7.48386 16.9263C7.54785 16.8623 7.63465 16.8263 7.72516 16.8263H13.211C13.2566 16.8235 13.3022 16.8303 13.3449 16.8465C13.3876 16.8626 13.4264 16.8876 13.4586 16.9199C13.4909 16.9522 13.516 16.991 13.5321 17.0337C13.5482 17.0764 13.5551 17.122 13.5522 17.1676C13.5588 17.2109 13.5557 17.2552 13.5432 17.2973C13.5306 17.3393 13.5089 17.378 13.4796 17.4107C13.4502 17.4433 13.4141 17.469 13.3736 17.486C13.3331 17.503 13.2894 17.5108 13.2456 17.5088Z" fill="#193651"/>
<path d="M13.2456 18.7012H7.72516C7.63465 18.7012 7.54785 18.6652 7.48386 18.6012C7.41986 18.5373 7.38391 18.4505 7.38391 18.36C7.38391 18.2694 7.41986 18.1826 7.48386 18.1186C7.54785 18.0546 7.63465 18.0187 7.72516 18.0187H13.211C13.2566 18.0158 13.3022 18.0227 13.3449 18.0389C13.3876 18.055 13.4264 18.08 13.4586 18.1123C13.4909 18.1446 13.516 18.1834 13.5321 18.2261C13.5482 18.2688 13.5551 18.3144 13.5522 18.36C13.5561 18.4028 13.551 18.446 13.5374 18.4869C13.5238 18.5277 13.502 18.5653 13.4732 18.5973C13.4444 18.6293 13.4094 18.6551 13.3702 18.6729C13.3311 18.6908 13.2886 18.7004 13.2456 18.7012Z" fill="#193651"/>
<path d="M13.2456 19.8601H7.72516C7.63465 19.8601 7.54785 19.8242 7.48386 19.7602C7.41986 19.6962 7.38391 19.6094 7.38391 19.5189C7.38391 19.4284 7.41986 19.3416 7.48386 19.2776C7.54785 19.2136 7.63465 19.1776 7.72516 19.1776H13.211C13.2566 19.1748 13.3022 19.1817 13.3449 19.1978C13.3876 19.2139 13.4264 19.239 13.4586 19.2712C13.4909 19.3035 13.516 19.3423 13.5321 19.385C13.5482 19.4277 13.5551 19.4733 13.5522 19.5189C13.5588 19.5623 13.5557 19.6065 13.5432 19.6486C13.5306 19.6906 13.5089 19.7293 13.4796 19.762C13.4502 19.7946 13.4141 19.8203 13.3736 19.8373C13.3331 19.8543 13.2894 19.8621 13.2456 19.8601Z" fill="#193651"/>
</svg>
