<svg width="22" height="22" viewBox="0 0 22 22" fill="none" xmlns="http://www.w3.org/2000/svg">
<path d="M21.6461 2.83813H1.20471V15.5315H21.6461V2.83813Z" fill="white"/>
<path d="M19.7337 0.596191H3.14978V13.0257H19.7337V0.596191Z" fill="#4FBF9F"/>
<path d="M21.9755 2.50825H20.0319V0.266357H2.81831V2.50825H0.874756V15.8634H8.22724L5.91926 20.9079L6.51253 21.1718L8.95218 15.8309H11.0954V20.216H11.7548V15.8634H13.8966L16.3362 21.2043L16.9295 20.9405L14.6254 15.894H21.9755V2.50825ZM3.47961 0.92571H19.4037V12.6959H3.47961V0.92571ZM21.3161 15.2016H1.53411V3.1676H2.81831V13.3553H20.063V3.1676H21.3161V15.2016Z" fill="#193651"/>
<path d="M18.415 1.91504H4.46851V11.7072H18.415V1.91504Z" fill="white"/>
<path d="M11.4254 9.16877C12.7366 9.16877 13.7995 8.10587 13.7995 6.79471C13.7995 5.48356 12.7366 4.42065 11.4254 4.42065C10.1143 4.42065 9.05139 5.48356 9.05139 6.79471C9.05139 8.10587 10.1143 9.16877 11.4254 9.16877Z" fill="#F16051"/>
<path d="M10.4031 5.40942V8.21203L12.8427 6.7942L10.4031 5.40942Z" fill="white"/>
<path d="M6.21563 2.90381H5.55627V3.56316H6.21563V2.90381Z" fill="#193651"/>
<path d="M8.42437 2.90381H7.76501V3.56316H8.42437V2.90381Z" fill="#193651"/>
<path d="M15.0845 2.90381H14.4252V3.56316H15.0845V2.90381Z" fill="#193651"/>
<path d="M12.8757 2.90381H12.2163V3.56316H12.8757V2.90381Z" fill="#193651"/>
<path d="M10.6337 2.90381H9.97437V3.56316H10.6337V2.90381Z" fill="#193651"/>
<path d="M17.2934 2.90381H16.634V3.56316H17.2934V2.90381Z" fill="#193651"/>
<path d="M6.21563 10.0581H5.55627V10.7175H6.21563V10.0581Z" fill="#193651"/>
<path d="M8.42437 10.0581H7.76501V10.7175H8.42437V10.0581Z" fill="#193651"/>
<path d="M15.0845 10.0581H14.4252V10.7175H15.0845V10.0581Z" fill="#193651"/>
<path d="M12.8757 10.0581H12.2163V10.7175H12.8757V10.0581Z" fill="#193651"/>
<path d="M10.6337 10.0581H9.97437V10.7175H10.6337V10.0581Z" fill="#193651"/>
<path d="M17.2934 10.0581H16.634V10.7175H17.2934V10.0581Z" fill="#193651"/>
</svg>
