<svg width="17" height="15" viewBox="0 0 17 15" fill="none" xmlns="http://www.w3.org/2000/svg">
<path fill-rule="evenodd" clip-rule="evenodd" d="M5.73145 2.81547C5.73145 4.37102 4.44905 5.63184 2.86572 5.63184C1.28333 5.63184 0 4.37102 0 2.81547C0 1.26082 1.28333 0 2.86572 0C4.44905 0 5.73145 1.26082 5.73145 2.81547ZM15.4111 1.58194C16.1037 1.58194 16.6667 2.13502 16.6667 2.81547C16.6667 3.49682 16.1037 4.04991 15.4111 4.04991H9.93152C9.238 4.04991 8.67504 3.49682 8.67504 2.81547C8.67504 2.13502 9.238 1.58194 9.93152 1.58194H15.4111ZM1.25647 10.7983H6.73607C7.42959 10.7983 7.99255 11.3514 7.99255 12.0327C7.99255 12.7132 7.42959 13.2672 6.73607 13.2672H1.25647C0.56296 13.2672 0 12.7132 0 12.0327C0 11.3514 0.56296 10.7983 1.25647 10.7983ZM13.8009 14.8148C15.3843 14.8148 16.6667 13.554 16.6667 11.9993C16.6667 10.4438 15.3843 9.18297 13.8009 9.18297C12.2185 9.18297 10.9352 10.4438 10.9352 11.9993C10.9352 13.554 12.2185 14.8148 13.8009 14.8148Z" fill="white"/>
</svg>
