<svg width="29" height="42" viewBox="0 0 29 42" fill="none" xmlns="http://www.w3.org/2000/svg">
<path fill-rule="evenodd" clip-rule="evenodd" d="M15.2384 0.98999C17.7269 1.4162 19.7661 3.20227 20.5164 5.61298C21.1117 7.5885 20.7367 9.72919 19.5054 11.3846C18.274 13.0402 16.3316 14.015 14.2684 14.013C11.2564 13.9978 8.63065 11.96 7.86839 9.04596C7.19901 6.00177 8.71729 2.89807 11.5314 1.55798C12.0484 1.31897 12.6084 1.17395 13.1494 0.984985L15.2384 0.98999Z" fill="#345FB4"/>
<path fill-rule="evenodd" clip-rule="evenodd" d="M4.21652 39.401C4.21652 37.974 4.17552 36.781 4.24553 35.595C4.33366 35.2498 4.5596 34.9559 4.87053 34.782C6.44266 33.7882 7.39729 32.0594 7.40094 30.1995C7.40459 28.3396 6.45674 26.607 4.88853 25.6071C4.57462 25.4388 4.3428 25.15 4.24654 24.8071C4.17554 23.5831 4.21654 22.3521 4.21654 21.0831C8.34053 20.465 11.7535 21.4111 14.4885 24.592C17.0455 20.972 20.7665 20.9141 24.7385 21.092C24.7385 22.397 24.7635 23.655 24.7165 24.9091C24.6531 25.188 24.483 25.431 24.2425 25.5861C22.7037 26.6016 21.7772 28.3217 21.776 30.1654C21.7748 32.0092 22.699 33.7305 24.2365 34.748C24.4963 34.9335 24.6698 35.2164 24.7175 35.532C24.7685 36.8 24.7405 38.071 24.7405 39.519C20.9485 38.431 17.3575 38.23 14.3505 41.414C11.4455 38.69 8.03653 38.41 4.21652 39.401Z" fill="#345FB4"/>
<path fill-rule="evenodd" clip-rule="evenodd" d="M27.4348 25.487C26.3347 25.528 26.0348 24.953 26.1008 23.914C26.1797 22.6841 26.1098 21.4441 26.1008 20.208C26.0683 20.0867 26.0209 19.9698 25.9597 19.8601C21.8777 19.6601 17.7377 19.307 14.4507 22.6891C14.0127 22.3441 13.6247 22.0311 13.2307 21.7291C10.3438 19.5151 7.00975 19.4871 3.62274 19.8291C3.37375 19.8541 3.01074 20.3571 2.98274 20.6631C2.87642 21.701 2.85535 22.7458 2.91975 23.7871C3.00475 24.9611 2.57874 25.5871 1.35873 25.6401C1.35873 24.2591 1.28574 22.8701 1.37474 21.4921C1.41148 19.0934 3.35291 17.1608 5.75175 17.1351C11.7357 17.0261 17.7237 17.0491 23.7097 17.0771C25.4878 17.3076 26.9454 18.5995 27.3877 20.3371C27.5162 22.0508 27.532 23.7712 27.4347 25.487H27.4348Z" fill="#345FB4"/>
<path fill-rule="evenodd" clip-rule="evenodd" d="M0.522949 29.915C0.650482 29.3062 0.829803 28.7093 1.05896 28.131C1.40482 27.1087 2.39047 26.4431 3.46796 26.504C4.63228 26.5649 5.6021 27.418 5.81096 28.565C6.01033 29.6443 5.99878 30.752 5.77695 31.827C5.53264 33.0013 4.51674 33.8561 3.31796 33.896C2.08733 33.8078 1.06815 32.9066 0.829956 31.696C0.685944 31.188 0.644958 30.649 0.522949 29.915Z" fill="#345FB4"/>
<path fill-rule="evenodd" clip-rule="evenodd" d="M28.5962 30.451C28.5082 31.0745 28.3509 31.6863 28.1272 32.275C27.7515 33.2405 26.8243 33.8788 25.7882 33.8849C24.7541 33.8596 23.8443 33.1953 23.5052 32.218C22.9286 30.9818 22.9013 29.5594 23.4302 28.302C23.8112 27.1682 24.9006 26.4266 26.0952 26.488C27.2764 26.7715 28.1906 27.7067 28.4472 28.894C28.5212 29.309 28.5312 29.735 28.5962 30.451Z" fill="#345FB4"/>
</svg>
