<svg width="32" height="41" viewBox="0 0 32 41" fill="none" xmlns="http://www.w3.org/2000/svg">
<path fill-rule="evenodd" clip-rule="evenodd" d="M15.9591 40.3011C12.6045 40.3409 9.25985 39.9272 6.01608 39.0711C4.55587 38.7176 3.16439 38.1245 1.89809 37.3161C1.39541 36.9566 0.935143 36.5413 0.526085 36.0781C0.141869 35.6302 -0.0472183 35.0472 0.00106049 34.4591C0.0994492 29.2213 3.75478 24.7249 8.86208 23.5591C9.27096 23.429 9.71743 23.5035 10.062 23.7591C11.6713 24.8603 13.5753 25.4503 15.5252 25.4521C17.1649 25.5553 18.8061 25.2756 20.3191 24.6351C20.9821 24.3261 21.5971 23.9141 22.2391 23.5591C22.3479 23.4924 22.4747 23.461 22.6021 23.4692C27.1142 24.2728 30.7002 27.7109 31.6931 32.1851C31.825 32.9083 31.9178 33.638 31.9711 34.3712C32.0321 35.1483 31.7345 35.9108 31.1631 36.4412C30.31 37.2643 29.2948 37.9008 28.1822 38.3101C26.3565 39.0377 24.4502 39.5436 22.5041 39.8171C20.3394 40.157 18.1504 40.3189 15.9591 40.3011L15.9591 40.3011Z" fill="#E9AE24"/>
<path fill-rule="evenodd" clip-rule="evenodd" d="M5.28127 6.21107C5.2673 6.47107 5.25625 6.64307 5.51424 6.77107C5.704 6.86935 5.82803 7.06036 5.84054 7.27374C5.85305 7.48711 5.75222 7.69128 5.57522 7.81108C5.44967 7.88055 5.38125 8.02141 5.4042 8.16307C5.55618 10.1821 5.68423 12.2041 5.86019 14.2211C5.8724 15.0935 5.6946 15.9582 5.3392 16.755C5.3182 16.8161 5.23922 16.8551 5.18722 16.9071C5.14321 16.8601 5.07619 16.8211 5.05721 16.7661C4.69003 15.9226 4.51675 15.0074 4.55025 14.088C4.73122 12.3251 4.81222 10.5511 4.9352 8.78207C4.94521 8.63707 4.96523 8.49307 4.9772 8.34807C5.03823 8.12491 4.95364 7.88739 4.76528 7.75307C4.60879 7.62285 4.53042 7.42111 4.55807 7.21936C4.58572 7.01761 4.71542 6.84436 4.90127 6.76106C5.16219 6.64508 5.11922 6.43607 5.13119 6.26108C5.13119 6.18907 4.96517 6.08807 4.85818 6.03207C4.61916 5.90607 4.35818 5.82208 4.1282 5.68008C3.74618 5.44008 3.74319 5.08008 4.13418 4.85507C4.49087 4.66281 4.85812 4.49086 5.23415 4.34007C8.33016 2.99741 11.4271 1.65674 14.5252 0.318085C15.4461 -0.100662 16.5026 -0.102844 17.4252 0.312073C20.7979 1.77008 24.1698 3.22874 27.5412 4.68808C27.8091 4.80408 28.1211 4.92609 28.1172 5.27008C28.1133 5.61408 27.8032 5.72908 27.5342 5.84607C26.4522 6.31607 25.3712 6.78708 24.2852 7.24608C24.1162 7.29283 24.007 7.45612 24.0281 7.63008C24.0412 8.58008 24.0092 9.53009 24.0462 10.4801C24.0978 10.8617 24.1837 11.2379 24.3031 11.6041C24.8662 14.1436 24.3762 16.8029 22.9451 18.9751C21.9328 20.7535 20.3402 22.1303 18.4341 22.8751C16.0445 23.8105 13.3328 23.3383 11.4001 21.6501C9.24343 19.9619 7.84158 17.4896 7.50008 14.7721C7.31625 13.4809 7.43649 12.1646 7.8511 10.9281C7.90438 10.7636 7.9327 10.592 7.93508 10.4191C7.94308 9.48808 7.93508 8.55708 7.94308 7.62608C7.96889 7.46231 7.86916 7.30481 7.71011 7.25809C6.91525 6.92609 6.12124 6.57307 5.28127 6.21107Z" fill="#E9AE24"/>
</svg>
